<svg xmlns="http://www.w3.org/2000/svg" viewBox="0 0 512 512">
  <defs>
    <linearGradient id="g" x1="72" y1="52" x2="448" y2="468" gradientUnits="userSpaceOnUse">
      <stop stop-color="#8b94ff"/>
      <stop offset="0.48" stop-color="#635bff"/>
      <stop offset="1" stop-color="#22d3ee"/>
    </linearGradient>
  </defs>
  <rect width="512" height="512" rx="116" fill="#080a0f"/>
  <circle cx="256" cy="256" r="164" fill="none" stroke="#1f2433" stroke-width="28"/>
  <path d="M367 187c-28-42-69-63-118-63-77 0-133 55-133 132s57 132 135 132c42 0 79-13 111-39V247H248v58h52v18c-14 8-30 12-48 12-43 0-73-32-73-79 0-46 29-79 72-79 27 0 49 11 66 32l50-22Z" fill="url(#g)"/>
  <circle cx="385" cy="127" r="18" fill="#22d3ee"/>
</svg>
